<mxfile host="app.diagrams.net" modified="2024-03-18T12:57:04.231Z" agent="Mozilla/5.0 (Windows NT 10.0; Win64; x64) AppleWebKit/537.36 (KHTML, like Gecko) Chrome/122.0.0.0 Safari/537.36" version="24.0.6" etag="XJMYl6tdx1YeDgdqdMov" type="github">
  <diagram name="Page-1" id="YaCKkSYmMm77SBidy_Zx">
    <mxGraphModel>
      <root>
        <mxCell id="0" />
        <mxCell id="1" parent="0" />
      </root>
    </mxGraphModel>
  </diagram>
</mxfile>
